<?xml version="1.0" encoding="UTF-8" standalone="no"?>
<svg width="16px" height="16px" viewBox="0 0 16 16" version="1.1" xmlns="http://www.w3.org/2000/svg" xmlns:xlink="http://www.w3.org/1999/xlink">
    <!-- Generator: Sketch 3.6.1 (26313) - http://www.bohemiancoding.com/sketch -->
    <title>lock</title>
    <desc>Created with Sketch.</desc>
    <defs></defs>
    <g id="Page-1" stroke="none" stroke-width="1" fill="none" fill-rule="evenodd">
        <g id="Artboard-1" transform="translate(-492.000000, -141.000000)" stroke="#FFFFFF">
            <g id="lock" transform="translate(492.000000, 141.000000)">
                <rect id="Rectangle-path" stroke-width="2" x="3" y="6" width="10" height="9"></rect>
                <path d="M8,10.5 C8.55228475,10.5 9,10.0522847 9,9.5 C9,8.94771525 8.55228475,8.5 8,8.5 C7.44771525,8.5 7,8.94771525 7,9.5 C7,10.0522847 7.44771525,10.5 8,10.5 Z M7.25,12.5 L8.75,12.5 L8,10.75 L7.25,12.5 Z M7.5,9 L8.5,9 L8.5,10 L7.5,10 L7.5,9 Z" id="Combined-Shape"></path>
                <path d="M5,6 L5,4 C5,2.3 6.3,1 8,1 L8,1 C9.7,1 11,2.3 11,4 L11,6" id="Shape" stroke-width="2"></path>
            </g>
        </g>
    </g>
</svg>