<?xml version="1.0" encoding="UTF-8" standalone="no"?>
<svg width="16px" height="16px" viewBox="0 0 16 16" version="1.1" xmlns="http://www.w3.org/2000/svg" xmlns:xlink="http://www.w3.org/1999/xlink">
    <!-- Generator: Sketch 3.6.1 (26313) - http://www.bohemiancoding.com/sketch -->
    <title>news</title>
    <desc>Created with Sketch.</desc>
    <defs></defs>
    <g id="Page-1" stroke="none" stroke-width="1" fill="none" fill-rule="evenodd">
        <g id="Artboard-1" transform="translate(-727.000000, -188.000000)" stroke="#FFFFFF">
            <g id="news" transform="translate(727.000000, 188.000000)">
                <path d="M3.00000002,14 L13,14 C14.1,14 15,13.1 15,12 L15,2 L4,2 L4,6" id="Shape" stroke-width="2"></path>
                <path d="M10,4.5 L13,4.5" id="Shape"></path>
                <path d="M10,6.5 L13,6.5" id="Shape"></path>
                <path d="M10,8.5 L13,8.5" id="Shape"></path>
                <path d="M10,10.5 L13,10.5" id="Shape"></path>
                <path d="M6,10.5 L9,10.5" id="Shape"></path>
                <path d="M6,8.5 L9,8.5" id="Shape"></path>
                <path d="M3.8,14 L3,14 L3,14 C1.9,14 1,13.1 1,12 L1,5 L3.8,5" id="Shape" stroke-width="2"></path>
                <rect id="Rectangle-path" fill="#FFFFFF" x="6.5" y="4.5" width="2" height="2"></rect>
                <path d="M4.5,6 L4.5,12 C4.5,12.8 3.8,13.5 3,13.5 L3,13.5" id="Shape"></path>
            </g>
        </g>
    </g>
</svg>