<?xml version="1.0" encoding="UTF-8" standalone="no"?>
<svg width="16px" height="16px" viewBox="0 0 16 16" version="1.1" xmlns="http://www.w3.org/2000/svg" xmlns:xlink="http://www.w3.org/1999/xlink">
    <!-- Generator: Sketch 3.6.1 (26313) - http://www.bohemiancoding.com/sketch -->
    <title>user-shirt</title>
    <desc>Created with Sketch.</desc>
    <defs></defs>
    <g id="Page-1" stroke="none" stroke-width="1" fill="none" fill-rule="evenodd">
        <g id="Artboard-1" transform="translate(-163.000000, -330.000000)" stroke="#FFFFFF">
            <g id="user-shirt" transform="translate(163.000000, 330.000000)">
                <path d="M5.57799916,9.79029905 C4.62116598,10.1636355 1,11 1,11 L1,15 L15,15 L15,11 L10.4710981,9.81636214" id="body" stroke-width="2"></path>
                <path d="M4,10 L6,14 L8,12 L10,14 L12,10" id="collar" stroke-linejoin="bevel"></path>
                <path d="M4,5 C4,8.3 5.8,11 8,11 C10.2,11 12,8.3 12,5 C12,2.8 10.2,1 8,1 C5.8,1 4,2.8 4,5 L4,5 Z" id="head" stroke-width="2"></path>
            </g>
        </g>
    </g>
</svg>