<?xml version="1.0" encoding="UTF-8" standalone="no"?>
<svg width="16px" height="16px" viewBox="0 0 16 16" version="1.1" xmlns="http://www.w3.org/2000/svg" xmlns:xlink="http://www.w3.org/1999/xlink" xmlns:sketch="http://www.bohemiancoding.com/sketch/ns">
    <!-- Generator: Sketch 3.5.2 (25235) - http://www.bohemiancoding.com/sketch -->
    <title>anchor-icon</title>
    <desc>Created with Sketch.</desc>
    <defs></defs>
    <g id="Page-1" stroke="none" stroke-width="1" fill="none" fill-rule="evenodd" sketch:type="MSPage">
        <g id="anchor-icon" sketch:type="MSArtboardGroup" stroke="#AAAAAA" stroke-width="2" stroke-linecap="round">
            <path d="M10.906647,8.62396104 L12.6697022,8.62396104 C14.3252315,8.62396104 15.6668542,7.28081529 15.6668542,5.62396104 C15.6668542,3.97047815 14.3249836,2.62396104 12.6697022,2.62396104 L8.07821983,2.62396104 C6.42269058,2.62396104 5.0810678,3.96710679 5.0810678,5.62396104" id="Rectangle-1" sketch:type="MSShapeGroup" transform="translate(10.373961, 5.623961) scale(-1, 1) rotate(-135.000000) translate(-10.373961, -5.623961) "></path>
            <path d="M6.15664697,13.373961 L7.91970222,13.373961 C9.57523148,13.373961 10.9168543,12.0308153 10.9168543,10.373961 C10.9168543,8.72047814 9.57498358,7.37396102 7.91970222,7.37396102 L3.32821985,7.37396102 C1.67269059,7.37396102 0.331067817,8.71710677 0.331067817,10.373961" id="Rectangle-1" sketch:type="MSShapeGroup" transform="translate(5.623961, 10.373961) scale(1, -1) rotate(-135.000000) translate(-5.623961, -10.373961) "></path>
        </g>
    </g>
</svg>