<?xml version="1.0" encoding="UTF-8" standalone="no"?>
<svg width="476px" height="64px" viewBox="0 0 476 64" version="1.1" xmlns="http://www.w3.org/2000/svg" xmlns:xlink="http://www.w3.org/1999/xlink">
    <!-- Generator: Sketch 3.7.2 (28276) - http://www.bohemiancoding.com/sketch -->
    <title>nordnet-logo-ui-kit</title>
    <desc>Created with Sketch.</desc>
    <defs></defs>
    <g id="Page-1" stroke="none" stroke-width="1" fill="none" fill-rule="evenodd">
        <g id="nordnet-ui-kit">
            <path d="M344.983398,37.894043 C344.983398,39.1294007 345.168699,40.2131301 345.539307,41.1452637 C345.909914,42.0773972 346.420895,42.8522918 347.072266,43.4699707 C347.723636,44.0876496 348.498531,44.5537094 349.396973,44.8681641 C350.295415,45.1826188 351.283686,45.3398438 352.361816,45.3398438 C353.574713,45.3398438 354.720209,45.1040063 355.79834,44.6323242 C356.87647,44.1606422 357.81982,43.4868208 358.628418,42.6108398 C359.437016,41.7348589 360.077146,40.667975 360.548828,39.4101562 C361.02051,38.1523375 361.256348,36.7260822 361.256348,35.1313477 L361.256348,16.9042969 L368.567383,16.9042969 L368.567383,51 L361.256348,51 L361.256348,46.3842773 C360.67236,47.1928751 359.964848,47.9396938 359.133789,48.6247559 C358.30273,49.3098179 357.387456,49.8994116 356.387939,50.3935547 C355.388423,50.8876978 354.321539,51.2751451 353.187256,51.5559082 C352.052973,51.8366713 350.901861,51.9770508 349.733887,51.9770508 C347.981925,51.9770508 346.364754,51.701907 344.882324,51.1516113 C343.399895,50.6013156 342.125249,49.8039603 341.05835,48.7595215 C339.99145,47.7150827 339.160403,46.434822 338.565186,44.9187012 C337.969968,43.4025803 337.672363,41.6787206 337.672363,39.7470703 L337.672363,16.9042969 L344.983398,16.9042969 L344.983398,37.894043 Z M375.057617,16.9042969 L382.368652,16.9042969 L382.368652,51 L375.057617,51 L375.057617,16.9042969 Z M373.945801,6.56103516 C373.945801,5.90966471 374.069335,5.29199511 374.316406,4.70800781 C374.563478,4.12402052 374.906004,3.61865448 375.343994,3.19189453 C375.781985,2.76513458 376.292966,2.42822389 376.876953,2.18115234 C377.46094,1.9340808 378.07861,1.81054688 378.72998,1.81054688 C379.381351,1.81054688 379.993405,1.9340808 380.566162,2.18115234 C381.138919,2.42822389 381.644285,2.76513458 382.082275,3.19189453 C382.520266,3.61865448 382.862792,4.12402052 383.109863,4.70800781 C383.356935,5.29199511 383.480469,5.90966471 383.480469,6.56103516 C383.480469,7.2124056 383.356935,7.83007521 383.109863,8.4140625 C382.862792,8.99804979 382.520266,9.50341583 382.082275,9.93017578 C381.644285,10.3569357 381.138919,10.6938464 380.566162,10.940918 C379.993405,11.1879895 379.381351,11.3115234 378.72998,11.3115234 C378.07861,11.3115234 377.46094,11.1879895 376.876953,10.940918 C376.292966,10.6938464 375.781985,10.3569357 375.343994,9.93017578 C374.906004,9.50341583 374.563478,8.99804979 374.316406,8.4140625 C374.069335,7.83007521 373.945801,7.2124056 373.945801,6.56103516 L373.945801,6.56103516 Z M408.589844,1.30517578 L415.900879,1.30517578 L415.900879,31.762207 L428.467773,16.9042969 L436.958008,16.9042969 L423.279297,32.7055664 L437.49707,51 L428.669922,51 L415.900879,34.4238281 L415.900879,51 L408.589844,51 L408.589844,1.30517578 Z M440.75293,16.9042969 L448.063965,16.9042969 L448.063965,51 L440.75293,51 L440.75293,16.9042969 Z M439.641113,6.56103516 C439.641113,5.90966471 439.764647,5.29199511 440.011719,4.70800781 C440.25879,4.12402052 440.601316,3.61865448 441.039307,3.19189453 C441.477297,2.76513458 441.988278,2.42822389 442.572266,2.18115234 C443.156253,1.9340808 443.773923,1.81054688 444.425293,1.81054688 C445.076663,1.81054688 445.688718,1.9340808 446.261475,2.18115234 C446.834231,2.42822389 447.339597,2.76513458 447.777588,3.19189453 C448.215578,3.61865448 448.558104,4.12402052 448.805176,4.70800781 C449.052247,5.29199511 449.175781,5.90966471 449.175781,6.56103516 C449.175781,7.2124056 449.052247,7.83007521 448.805176,8.4140625 C448.558104,8.99804979 448.215578,9.50341583 447.777588,9.93017578 C447.339597,10.3569357 446.834231,10.6938464 446.261475,10.940918 C445.688718,11.1879895 445.076663,11.3115234 444.425293,11.3115234 C443.773923,11.3115234 443.156253,11.1879895 442.572266,10.940918 C441.988278,10.6938464 441.477297,10.3569357 441.039307,9.93017578 C440.601316,9.50341583 440.25879,8.99804979 440.011719,8.4140625 C439.764647,7.83007521 439.641113,7.2124056 439.641113,6.56103516 L439.641113,6.56103516 Z M474.903809,43.4868164 L474.22998,50.2250977 C473.039545,50.8540071 471.882818,51.3032213 470.759766,51.5727539 C469.636713,51.8422865 468.423835,51.9770508 467.121094,51.9770508 C465.773431,51.9770508 464.510016,51.763674 463.330811,51.3369141 C462.151605,50.9101541 461.118413,50.2587934 460.231201,49.3828125 C459.34399,48.5068316 458.647708,47.4062566 458.142334,46.0810547 C457.63696,44.7558527 457.384277,43.1948332 457.384277,41.3979492 L457.384277,23.2719727 L451.319824,23.2719727 L451.319824,16.9042969 L457.384277,16.9042969 L457.384277,10.4355469 L464.695312,7.10009766 L464.695312,16.9042969 L474.22998,16.9042969 L474.22998,23.2719727 L464.695312,23.2719727 L464.695312,41.3979492 C464.695312,42.1167028 464.813231,42.7399876 465.049072,43.2678223 C465.284913,43.7956569 465.593748,44.2336408 465.975586,44.5817871 C466.357424,44.9299334 466.784177,45.1882316 467.255859,45.3566895 C467.727541,45.5251473 468.210447,45.609375 468.70459,45.609375 C469.490727,45.609375 470.349849,45.4689955 471.281982,45.1882324 C472.214116,44.9074693 473.219233,44.3403363 474.297363,43.4868164 L474.903809,43.4868164 Z" id="ui-kit" fill="#00A9EC"></path>
            <path d="M312.356492,42.9973333 C310.504982,44.3301052 308.666948,45.0060351 306.890667,45.0060351 C304.247018,45.0060351 302.668351,43.2370526 302.668351,40.2734035 L302.668351,24.2032281 L311.99607,24.2032281 L311.99607,17.3288421 L302.668351,17.3288421 L302.668351,7.30722807 L294.396632,5.02175438 L294.396632,17.3288421 L288.677614,17.3288421 L288.677614,24.2032281 L294.396632,24.2032281 L294.396632,40.7157895 C294.396632,48.8976842 299.707508,51.8130526 304.677614,51.8130526 C306.252912,51.8130526 307.592421,51.6912281 308.657965,51.450386 C309.677474,51.2202105 311.376281,50.6762105 312.779228,50.050807 L312.779228,42.9973333 L312.356492,42.9973333 Z M278.010386,18.0362105 C275.396492,16.546807 271.984281,16.2341052 269.582035,16.2341052 C264.744421,16.2341052 260.597333,17.9278596 257.255299,21.2687719 C253.936842,24.5866667 252.254877,28.7573333 252.254877,33.6645614 C252.254877,37.0189474 253.068351,40.0982456 254.673404,42.8176842 C256.316632,45.6 258.53586,47.7866667 261.270456,49.3159299 C264.063438,50.8794386 267.157895,51.6727018 270.46793,51.6727018 C275.172492,51.6727018 280.000562,50.4050526 284.095438,48.098807 L284.021333,40.2694737 L283.682807,40.2694737 C280.143719,43.2746667 275.916351,44.7977544 271.114667,44.7977544 C265.282245,44.7977544 261.162105,41.6898245 260.093193,36.4839299 L259.975299,35.9101755 L285.559018,35.9101755 C285.65614,35.5183158 285.653333,34.9597193 285.650526,34.528 C285.649965,34.3545263 285.649404,34.1917193 285.653333,34.0485614 C285.744281,30.9670175 285.585965,26.981614 283.541895,23.4930526 C282.21586,21.2300351 280.303158,19.3425965 278.010386,18.0362105 Z M269.582035,22.3949474 C271.860211,22.3949474 273.834105,23.1225263 275.444211,24.5541052 C276.979649,25.885193 277.903719,27.6289123 278.209684,29.7313684 L260.419368,29.7313684 C261.733052,25.2008421 265.217684,22.3949474 269.582035,22.3949474 Z M236.511438,16.3744562 C234.336,16.3744562 232.251508,16.8398596 230.309614,17.7616842 C228.380632,18.6436492 226.790737,19.8686316 225.583158,21.4012632 L224.730948,22.4836492 L224.730948,17.3288421 L216.494035,17.3288421 L216.494035,50.8261052 L224.730948,50.8261052 L224.730948,33.5320701 C224.730948,30.6593684 225.515228,28.3082105 227.063018,26.5448421 C228.604632,24.7876492 230.603789,23.8967018 233.004912,23.8967018 C237.418105,23.8967018 240.053333,26.5824562 240.053333,31.0815438 L240.053333,50.8261052 L248.290245,50.8261052 L248.290245,27.8124912 C248.290245,24.0662456 247.220211,21.1952281 245.109895,19.2808421 C242.984982,17.3524211 240.092632,16.3744562 236.511438,16.3744562 Z M191.953965,51.0349474 C188.668632,51.0349474 185.612351,50.2658245 182.869333,48.7483508 C180.075789,47.2039299 177.918877,45.1441404 176.276211,42.4505263 C174.632421,39.7209825 173.832982,36.8196492 173.832982,33.5837193 C173.832982,28.9296842 175.770386,24.4014035 179.148351,21.1598596 C182.488701,17.9862456 187.156772,16.165614 191.953965,16.165614 C195.272421,16.165614 198.535299,17.0329825 201.390035,18.6739649 L202.105263,19.0854737 L202.105263,7.61712281 L210.341614,5.10091228 L210.341614,50.8261052 L202.105263,50.8261052 L202.105263,48.101614 L201.230035,48.6164211 C201.15593,48.6613333 201.082386,48.7062456 201.006035,48.7483508 C198.223719,50.2871579 195.262877,51.0349474 191.953965,51.0349474 Z M191.953965,23.554807 C189.203088,23.554807 186.825544,24.5018948 184.887018,26.3696842 C182.944562,28.2414035 181.959299,30.6683508 181.959299,33.5837193 C181.959299,36.4985263 182.944562,38.9254737 184.887018,40.7966316 C186.824982,42.6644211 189.202526,43.6115088 191.953965,43.6115088 C194.705404,43.6115088 197.083508,42.6644211 199.021474,40.7966316 C200.985263,38.9389474 201.982316,36.5108772 201.982316,33.5837193 C201.982316,30.6565614 200.985263,28.2284912 199.018667,26.3668772 C197.082948,24.5018948 194.704842,23.554807 191.953965,23.554807 Z M153.217684,50.8261052 L153.217684,17.3282807 L161.454596,17.3282807 L161.454596,21.6808421 L162.309052,20.5827368 C164.358737,17.9475088 167.527299,16.3744562 170.784562,16.3744562 C171.68786,16.3744562 172.577123,16.4929123 173.378245,16.7185965 L173.378245,23.328 C172.854456,23.1618245 172.294175,23.0781755 171.704701,23.0781755 C168.616421,23.0781755 165.34793,25.3423158 163.618807,27.4464562 C162.142316,29.2429474 161.454596,31.4167018 161.454596,34.2877193 L161.454596,50.8261052 L153.217684,50.8261052 Z M131.165193,51.7221052 C127.87986,51.7221052 124.823579,50.9529825 122.080562,49.4360701 C119.287018,47.8910877 117.130105,45.8312982 115.486877,43.1376842 C113.843649,40.4087018 113.043649,37.5073684 113.043649,34.2708772 C113.043649,29.6168421 114.981614,25.0891228 118.359579,21.8470175 C121.699368,18.6739649 126.367438,16.8533333 131.165193,16.8533333 C135.974737,16.8533333 140.630456,18.6734035 143.937684,21.8470175 C147.337544,25.0773333 149.286737,29.6050526 149.286737,34.2708772 C149.286737,37.5079299 148.487299,40.4087018 146.841825,43.1399299 C145.234526,45.7751579 143.005755,47.8944562 140.216701,49.4360701 C137.434386,50.9743158 134.473544,51.7221052 131.165193,51.7221052 Z M131.165193,24.2425263 C128.414316,24.2425263 126.036772,25.189614 124.098245,27.0574035 C122.155228,28.9291228 121.170526,31.3560701 121.170526,34.2708772 C121.170526,37.1862456 122.155228,39.613193 124.098245,41.4843508 C126.036211,43.3521404 128.413755,44.2992281 131.165193,44.2992281 C133.916632,44.2992281 136.294737,43.3521404 138.232701,41.4843508 C140.196492,39.6261052 141.193544,37.1980351 141.193544,34.2708772 C141.193544,31.3442807 140.196492,28.9156492 138.229333,27.0545965 C136.294175,25.189614 133.91607,24.2425263 131.165193,24.2425263 Z M101.062175,50.8261052 L101.062175,31.0815438 C101.062175,26.5824562 98.4269476,23.8967018 94.0131929,23.8967018 C91.612632,23.8967018 89.6134738,24.7876492 88.0718596,26.5448421 C86.5246316,28.3082105 85.7397895,30.6593684 85.7397895,33.5320701 L85.7397895,50.8261052 L77.5028772,50.8261052 L77.5028772,17.4113684 L85.7397895,17.4113684 L85.7397895,22.4842105 L86.5925614,21.4012632 C87.7995789,19.8686316 89.3894738,18.6442105 91.318456,17.7616842 C93.2592284,16.8398596 95.3437191,16.3744562 97.5202809,16.3744562 C101.100912,16.3744562 103.993825,17.3524211 106.118175,19.2808421 C108.229052,21.1952281 109.299088,24.0662456 109.299088,27.8124912 L109.299088,50.8261052 L101.062175,50.8261052 Z" id="nordnet" fill="#222222"></path>
            <path d="M11.3515789,32.5226667 C13.1458245,29.8812632 14.5897544,27.7367018 15.749614,26.0143158 L17.0341052,24.1083508 C18.2843508,22.2613333 19.2252632,20.8814035 19.9573333,19.933193 C20.4014035,19.365614 20.8157193,18.8597895 21.413614,18.3893333 C21.7869474,18.0990877 22.2181052,17.8661052 22.6329825,17.7291228 C23.1320701,17.5601404 23.6098245,17.5242105 23.9219649,17.5242105 C24.3469474,17.5247719 24.7073684,17.5797895 25.0565614,17.6926316 C25.4938948,17.8284912 25.9621052,18.1030175 26.3017544,18.4235789 C26.5032982,18.6099649 26.6829474,18.8182456 26.8446316,19.0551579 C27.0523508,19.3577544 27.1837193,19.6305965 27.2741052,19.834386 C27.4088421,20.1392281 27.522807,20.4530526 27.6463158,20.8567018 C27.7832982,21.3035789 27.9214035,21.8290526 28.0937544,22.5616842 C28.2846316,23.3684211 28.5075088,24.3980351 28.8398596,26.0025263 C29.181193,27.653614 29.5955088,29.7139649 30.1204211,32.3216842 L30.3668772,33.5444211 C31.0523508,36.9414737 31.5413333,39.5009123 31.9461052,41.6331228 L32.1302456,42.5992982 C32.154386,42.6739649 32.2099649,42.6863158 32.258807,42.6178245 C32.4575438,42.3236492 33.0599299,41.3900351 33.5713684,40.5973333 C33.5713684,40.5973333 37.5438596,34.4409825 38.5824562,32.8353684 C42.3764211,26.9726316 46.2450526,21.0717193 49.3541052,16.3301052 C51.1000701,13.6673684 52.6585263,11.2898245 53.9385263,9.32435084 C48.2127719,3.78161404 40.416,0.364912281 31.8181052,0.364912281 C14.2450526,0.364912281 0,14.6099649 0,32.1818948 C0,36.8067368 0.994807013,41.1963508 2.76940351,45.1609825 L11.3515789,32.5226667 Z M57.7779649,13.797614 C56.7051228,15.4414035 55.1219649,17.8414035 53.2962807,20.608 C50.2113684,25.282807 46.3719299,31.101193 43.2780351,35.8815438 C42.0036492,37.8509474 40.9263158,39.5211228 39.9758596,40.994807 L39.7877895,41.2878596 C39.0029474,42.5038596 38.3202807,43.5632281 37.733614,44.4659649 C36.4171228,46.4943158 35.5750175,47.7658948 34.8917895,48.6792982 C34.4460351,49.2642807 34.0620351,49.7454035 33.4821052,50.2181052 C33.1110175,50.5134035 32.6809825,50.749193 32.2649825,50.8861755 C31.874807,51.0203508 31.4475789,51.0877193 30.9939649,51.0877193 L30.9900351,51.0877193 C30.6655438,51.0877193 30.1265965,51.0461755 29.5635088,50.7755789 C29.1070877,50.5633684 28.6675088,50.2046316 28.3581755,49.7914386 C28.2043508,49.5876492 28.0769123,49.3810526 27.9601404,49.1435789 C27.8231579,48.8645614 27.7333333,48.6124912 27.6637193,48.4025263 C27.5542456,48.0662456 27.4672281,47.7254737 27.3908772,47.4071579 C27.2836492,46.9484912 27.168,46.4011228 27.0270877,45.6842105 C26.8816842,44.9487719 26.7177544,44.0847719 26.5100351,42.9911579 L26.3590175,42.1956492 C25.9800701,40.2065965 25.5079299,37.7555088 24.8825263,34.6537544 L24.5804912,33.1525614 C24.0735438,30.6324211 23.3459649,27.0613333 23.3459649,27.0613333 C23.3459649,27.0613333 23.3055438,26.8844912 23.0472982,25.6392982 C23.0158596,25.5090526 22.9018948,25.4304562 22.786807,25.6022456 C22.3607018,26.24 21.8178245,27.0254035 21.1239299,28.0544562 L20.1639299,29.4804211 C19.0506667,31.133193 17.6651228,33.1901755 15.9781052,35.6738245 C13.4091228,39.4548772 9.27157893,45.4759299 5.81108772,50.5021755 C11.5716492,58.6638596 21.0683508,64 31.8181052,64 C49.3889123,64 63.6350877,49.7538245 63.6350877,32.1818948 C63.6350877,25.3305263 61.4618948,18.9905965 57.7779649,13.797614 Z M47.842807,50.970386 C45.7931228,50.970386 44.1313684,49.309193 44.1313684,47.2595088 C44.1313684,45.2098245 45.7931228,43.5486316 47.842807,43.5486316 C49.893614,43.5486316 51.5536842,45.2098245 51.5536842,47.2595088 C51.5536842,49.309193 49.893614,50.970386 47.842807,50.970386 Z" id="Combined-Shape" fill="#00A9EC"></path>
        </g>
    </g>
</svg>